<svg width="26" height="25" viewBox="0 0 26 25" fill="none" xmlns="http://www.w3.org/2000/svg">
<path d="M18.6042 15.25H17.4521L17.0438 14.8787C18.4729 13.3112 19.3333 11.2762 19.3333 9.0625C19.3333 4.12625 15.0896 0.125 9.85417 0.125C4.61875 0.125 0.375 4.12625 0.375 9.0625C0.375 13.9987 4.61875 18 9.85417 18C12.2021 18 14.3604 17.1888 16.0229 15.8413L16.4167 16.2262V17.3125L23.7083 24.1737L25.8813 22.125L18.6042 15.25ZM9.85417 15.25C6.22292 15.25 3.29167 12.4862 3.29167 9.0625C3.29167 5.63875 6.22292 2.875 9.85417 2.875C13.4854 2.875 16.4167 5.63875 16.4167 9.0625C16.4167 12.4862 13.4854 15.25 9.85417 15.25Z" fill="#70CC98"/>
</svg>
